<svg width="28" height="28" viewBox="0 0 28 28" fill="none" xmlns="http://www.w3.org/2000/svg">
<g id="Delivery">
<path id="Vector" d="M3.2715 19.8626V19.6826H3.0915H1.3465V6.41675C1.3465 6.00094 1.50027 5.63754 1.81878 5.31903C2.1373 5.00051 2.5007 4.84675 2.9165 4.84675H19.624V9.53758V9.71758H19.804H22.7766L26.6532 14.8768V19.6826H24.7623H24.5823V19.8626C24.5823 20.7715 24.2666 21.5382 23.6322 22.1732C22.9978 22.8083 22.2319 23.1242 21.3241 23.1242C20.4163 23.1242 19.6492 22.8082 19.0124 22.173C18.3757 21.5379 18.059 20.7713 18.059 19.8626V19.6826H17.879H9.97484H9.79484V19.8626C9.79484 20.7681 9.47922 21.5341 8.84453 22.1709C8.21007 22.8076 7.44427 23.1242 6.53661 23.1242C5.62878 23.1242 4.86167 22.8082 4.22488 22.173L4.09775 22.3004L4.22488 22.173C3.58824 21.5379 3.2715 20.7713 3.2715 19.8626ZM2.7365 18.1126V18.2926H2.9165H3.55817H3.65754L3.71049 18.2085C4.02701 17.7058 4.42596 17.3078 4.90776 17.0118C5.38444 16.7189 5.91545 16.5717 6.5052 16.5717C7.09384 16.5717 7.62909 16.7232 8.11511 17.0258C8.60827 17.3329 9.0122 17.7276 9.32835 18.2111L9.38163 18.2926H9.479H18.054H18.234V18.1126V6.41675V6.23675H18.054H2.9165H2.7365V6.41675V18.1126ZM19.624 15.6042V15.7842H19.804H25.229H25.589L25.373 15.4962L22.1355 11.1796L22.0815 11.1076H21.9915H19.804H19.624V11.2876V15.6042ZM6.53317 21.7342C7.04767 21.7342 7.49204 21.5499 7.85628 21.1857C8.22053 20.8214 8.40484 20.3771 8.40484 19.8626C8.40484 19.3481 8.22053 18.9037 7.85628 18.5395C7.49204 18.1752 7.04767 17.9909 6.53317 17.9909C6.01867 17.9909 5.5743 18.1752 5.21006 18.5395C4.84581 18.9037 4.6615 19.3481 4.6615 19.8626C4.6615 20.3771 4.84581 20.8214 5.21006 21.1857C5.5743 21.5499 6.01867 21.7342 6.53317 21.7342ZM21.3207 21.7342C21.8352 21.7342 22.2795 21.5499 22.6438 21.1857C23.008 20.8214 23.1923 20.3771 23.1923 19.8626C23.1923 19.3481 23.008 18.9037 22.6438 18.5395C22.2795 18.1752 21.8352 17.9909 21.3207 17.9909C20.8062 17.9909 20.3618 18.1752 19.9976 18.5395C19.6333 18.9037 19.449 19.3481 19.449 19.8626C19.449 20.3771 19.6333 20.8214 19.9976 21.1857C20.3618 21.5499 20.8062 21.7342 21.3207 21.7342Z" fill="black" stroke="white" stroke-width="0.36"/>
</g>
</svg>
