<svg width="24" height="24" viewBox="0 0 24 24" fill="none" xmlns="http://www.w3.org/2000/svg">
<g id="Frame" clip-path="url(#clip0_231_926)">
<path id="Vector" d="M2.99976 10C2.99976 10.9193 3.18082 11.8295 3.5326 12.6788C3.88438 13.5281 4.4 14.2997 5.05001 14.9497C5.70002 15.5998 6.47169 16.1154 7.32097 16.4672C8.17025 16.8189 9.0805 17 9.99976 17C10.919 17 11.8293 16.8189 12.6785 16.4672C13.5278 16.1154 14.2995 15.5998 14.9495 14.9497C15.5995 14.2997 16.1151 13.5281 16.4669 12.6788C16.8187 11.8295 16.9998 10.9193 16.9998 10C16.9998 9.08075 16.8187 8.1705 16.4669 7.32122C16.1151 6.47194 15.5995 5.70026 14.9495 5.05025C14.2995 4.40024 13.5278 3.88463 12.6785 3.53284C11.8293 3.18106 10.919 3 9.99976 3C9.0805 3 8.17025 3.18106 7.32097 3.53284C6.47169 3.88463 5.70002 4.40024 5.05001 5.05025C4.4 5.70026 3.88438 6.47194 3.5326 7.32122C3.18082 8.1705 2.99976 9.08075 2.99976 10Z" stroke="#0066FF" stroke-width="2.5" stroke-linecap="round" stroke-linejoin="round"/>
<path id="Vector_2" d="M20.9998 21L14.9998 15" stroke="#0066FF" stroke-width="2.5" stroke-linecap="round" stroke-linejoin="round"/>
</g>
<defs>
<clipPath id="clip0_231_926">
<rect width="24" height="24" fill="white" transform="translate(-0.000244141)"/>
</clipPath>
</defs>
</svg>
