<svg width="28" height="28" viewBox="0 0 28 28" fill="none" xmlns="http://www.w3.org/2000/svg">
<g id="Frame">
<path id="Vector" d="M13.9055 8.37486L12.9278 7.38488C12.0202 6.46596 10.7893 5.94971 9.50577 5.94971C8.22226 5.94971 6.9913 6.46596 6.08372 7.38488C5.17614 8.30381 4.66626 9.55016 4.66626 10.8497C4.66626 12.1493 5.17614 13.3956 6.08372 14.3145L10.9512 19.2428C10.9582 19.25 10.9652 19.2572 10.9723 19.2643L13.4166 21.7392C13.5516 21.8759 13.7286 21.9443 13.9055 21.9443" stroke="#262626" stroke-width="1.4" stroke-linecap="round" stroke-linejoin="round"/>
<path id="Vector_2" d="M13.9055 8.37479L14.8832 7.38488C15.7908 6.46596 17.0217 5.94971 18.3053 5.94971C19.5888 5.94971 20.8197 6.46596 21.7273 7.38488C22.6349 8.30381 23.1448 9.55016 23.1448 10.8497C23.1448 12.1493 22.6349 13.3956 21.7273 14.3145L14.3943 21.7392C14.2594 21.8758 14.0824 21.9442 13.9055 21.9442" stroke="#262626" stroke-width="1.4" stroke-linecap="round" stroke-linejoin="round"/>
</g>
</svg>
