<svg width="28" height="28" viewBox="0 0 28 28" fill="none" xmlns="http://www.w3.org/2000/svg">
<g id="Frame">
<path id="Vector" d="M9.18147 17.1499H22.3173L24.737 7.34985H6.76172" stroke="#262626" stroke-width="1.4" stroke-linecap="round" stroke-linejoin="round"/>
<path id="Vector_2" d="M10.2015 21.2811L6.07038 4.55005H3.30493" stroke="#262626" stroke-width="1.4" stroke-linecap="round" stroke-linejoin="round"/>
<path id="Vector_3" d="M9.32047 21.5247C9.87622 21.1998 10.5609 21.1998 11.1167 21.5247C11.6724 21.8495 12.0148 22.4499 12.0148 23.0997C12.0148 23.7494 11.6724 24.3498 11.1167 24.6747C10.5609 24.9995 9.87622 24.9995 9.32047 24.6747C8.76472 24.3498 8.42236 23.7494 8.42236 23.0997C8.42236 22.4499 8.76472 21.8495 9.32047 21.5247Z" stroke="#262626" stroke-width="1.4" stroke-linecap="round" stroke-linejoin="round"/>
<path id="Vector_4" d="M10.709 21.3501H21.1354" stroke="#262626" stroke-width="1.4" stroke-linecap="round" stroke-linejoin="round"/>
<path id="Vector_5" d="M20.7279 21.5247C21.2837 21.1998 21.9684 21.1998 22.5241 21.5247C23.0799 21.8495 23.4222 22.4499 23.4222 23.0997C23.4222 23.7494 23.0799 24.3498 22.5241 24.6747C21.9684 24.9995 21.2837 24.9995 20.7279 24.6747C20.1722 24.3498 19.8298 23.7494 19.8298 23.0997C19.8298 22.4499 20.1722 21.8495 20.7279 21.5247Z" stroke="#262626" stroke-width="1.4" stroke-linecap="round" stroke-linejoin="round"/>
</g>
</svg>
