<svg width="20" height="20" viewBox="0 0 20 20" fill="none" xmlns="http://www.w3.org/2000/svg">
<g id="google-color-svgrepo-com 1" clip-path="url(#clip0_4_935)">
<g id="Icons">
<g id="Color-">
<g id="Google">
<path id="Fill-1" fill-rule="evenodd" clip-rule="evenodd" d="M4.30305 10C4.30305 9.3649 4.40853 8.75601 4.5968 8.1849L1.30145 5.66846C0.65921 6.97246 0.297363 8.44179 0.297363 10C0.297363 11.5569 0.658765 13.0253 1.30012 14.3285L4.59368 11.8071C4.40719 11.2387 4.30305 10.632 4.30305 10Z" fill="#FBBC05"/>
<path id="Fill-2" fill-rule="evenodd" clip-rule="evenodd" d="M10.089 4.22217C11.4687 4.22217 12.7149 4.71106 13.6941 5.51106L16.5426 2.66661C14.8068 1.1555 12.5814 0.222168 10.089 0.222168C6.21948 0.222168 2.89387 2.43506 1.30139 5.66839L4.59673 8.18484C5.35603 5.87995 7.52043 4.22217 10.089 4.22217Z" fill="#EB4335"/>
<path id="Fill-3" fill-rule="evenodd" clip-rule="evenodd" d="M10.089 15.7776C7.52044 15.7776 5.35603 14.1198 4.59673 11.8149L1.30139 14.3309C2.89387 17.5647 6.21948 19.7776 10.089 19.7776C12.4772 19.7776 14.7574 18.9296 16.4687 17.3407L13.3407 14.9225C12.4581 15.4785 11.3468 15.7776 10.089 15.7776Z" fill="#34A853"/>
<path id="Fill-4" fill-rule="evenodd" clip-rule="evenodd" d="M19.4356 9.99995C19.4356 9.42217 19.3466 8.79995 19.213 8.22217H10.089V11.9999H15.3409C15.0783 13.2879 14.3635 14.2782 13.3407 14.9226L16.4687 17.3408C18.2664 15.6724 19.4356 13.1871 19.4356 9.99995Z" fill="#4285F4"/>
</g>
</g>
</g>
</g>
<defs>
<clipPath id="clip0_4_935">
<rect width="20" height="20" fill="white"/>
</clipPath>
</defs>
</svg>
