<svg width="32" height="38" viewBox="0 0 32 38" fill="none" xmlns="http://www.w3.org/2000/svg">
<g id="Group 3245">
<path id="final logo" d="M26.922 9.87665C26.9279 9.88213 26.9336 9.89091 26.9349 9.90544M26.922 9.87665L26.9122 9.88731L26.922 9.87665ZM26.922 9.87665C26.919 9.87383 26.9166 9.87261 26.9155 9.87219L26.9349 9.90544M26.9349 9.90544L26.9358 9.91422L26.9349 9.90544ZM5.12633 7.70355H9.59114V7.08749C9.59114 3.5184 12.4845 0.625072 16.0536 0.625072C19.6227 0.625072 22.516 3.5184 22.516 7.08749V7.70355H26.9122C28.0585 7.70355 28.9854 8.58447 29.093 9.69643C29.093 9.69689 29.0931 9.69735 29.0931 9.69781L31.443 32.4501C31.4594 32.6087 31.3737 32.7603 31.2293 32.8281C31.085 32.8958 30.9136 32.8648 30.8021 32.7509L28.7866 30.6914C28.7274 30.6308 28.6904 30.552 28.6817 30.4677L26.5932 10.2466H22.516V11.3346C22.516 12.0368 21.9467 12.6061 21.2444 12.6061C20.5422 12.6061 19.9729 12.0368 19.9729 11.3346V10.2466H12.1342V11.3346C12.1342 12.0368 11.5649 12.6061 10.8627 12.6061C10.1604 12.6061 9.59114 12.0368 9.59114 11.3346V10.2466H5.44809L3.2013 34.1299H25.4046C25.5057 34.1299 25.6025 34.1707 25.6731 34.2431L27.4216 36.0363C27.5269 36.1442 27.5573 36.3047 27.4987 36.4437C27.4401 36.5826 27.304 36.673 27.1532 36.673H2.81631C1.49395 36.673 0.508434 35.5189 0.636242 34.2443C0.636288 34.2438 0.636333 34.2434 0.636379 34.2429L2.94582 9.69351L2.94599 9.69173L2.94681 9.68342L2.94699 9.68172C3.06146 8.57552 3.98619 7.70355 5.12633 7.70355ZM12.1342 7.08749V7.70355H19.9729V7.08749C19.9729 4.9229 18.2182 3.16814 16.0536 3.16814C13.889 3.16814 12.1342 4.9229 12.1342 7.08749Z" fill="url(#paint0_linear_28_227)" stroke="url(#paint1_linear_28_227)" stroke-width="0.749856" stroke-linecap="round" stroke-linejoin="round"/>
<g id="final logo_2">
<path d="M31.5594 32.6326C31.6148 33.0724 31.3724 33.4979 30.9552 33.6931C30.538 33.8884 30.0374 33.8106 29.7076 33.4994L28.0292 31.9156L28.0265 31.9131L23.2196 27.4088C22.6445 26.87 22.6291 25.9875 23.185 25.4289L24.128 24.4814L16.2511 22.3912L18.6788 29.9569L19.5838 29.0476C20.1498 28.4789 21.091 28.4625 21.6764 29.011L26.369 33.4082L28.0724 34.9766C28.3898 35.2688 28.491 35.715 28.3289 36.107C28.1669 36.499 27.7733 36.7596 27.3319 36.7673L26.8236 36.7762L24.659 34.7313L24.6634 34.7312L24.123 34.2249L20.6642 30.9839L19.4175 32.2367C18.6296 33.0284 17.273 32.6933 16.9482 31.681L13.7859 21.8265C13.4561 20.7987 14.4281 19.7451 15.5862 20.0524L25.846 22.7749C26.9324 23.0632 27.2705 24.3456 26.5151 25.1047L25.2427 26.3832L27.1308 28.1525L31.5137 32.2701L31.5594 32.6326Z" fill="url(#paint2_linear_28_227)"/>
<path d="M29.0189 29.9217L27.1308 28.1525M27.1308 28.1525L25.2427 26.3832L26.5151 25.1047C27.2705 24.3456 26.9324 23.0632 25.846 22.7749L15.5862 20.0524C14.4281 19.7451 13.4561 20.7987 13.7859 21.8265L16.9482 31.681C17.273 32.6933 18.6296 33.0284 19.4175 32.2367L20.6642 30.9839L24.123 34.2249M27.1308 28.1525L31.5137 32.2701L31.5594 32.6326C31.6148 33.0724 31.3724 33.4979 30.9552 33.6931C30.538 33.8884 30.0374 33.8106 29.7076 33.4994L28.0292 31.9156L28.0265 31.9131L23.2196 27.4088C22.6445 26.87 22.6291 25.9875 23.185 25.4289L24.128 24.4814L16.2511 22.3912L18.6788 29.9569L19.5838 29.0476C20.1498 28.4789 21.091 28.4625 21.6764 29.011L26.369 33.4082L28.0724 34.9766C28.3898 35.2688 28.491 35.715 28.3289 36.107C28.1669 36.499 27.7733 36.7596 27.3319 36.7673L26.8236 36.7762L24.659 34.7313M24.123 34.2249L24.6634 34.7312L24.659 34.7313M24.123 34.2249L24.659 34.7313" stroke="url(#paint3_linear_28_227)" stroke-width="0.687368" stroke-linecap="round" stroke-linejoin="round"/>
</g>
</g>
<defs>
<linearGradient id="paint0_linear_28_227" x1="39.015" y1="-7.52718" x2="-10.8618" y2="49.9241" gradientUnits="userSpaceOnUse">
<stop stop-color="#6D4BDB"/>
<stop offset="0.498088" stop-color="#2196F3" stop-opacity="0.85"/>
<stop offset="1" stop-color="#77CFFD"/>
</linearGradient>
<linearGradient id="paint1_linear_28_227" x1="39.015" y1="-7.52718" x2="-10.8618" y2="49.9241" gradientUnits="userSpaceOnUse">
<stop stop-color="#6D4BDB"/>
<stop offset="0.498088" stop-color="#2196F3" stop-opacity="0.85"/>
<stop offset="1" stop-color="#77CFFD"/>
</linearGradient>
<linearGradient id="paint2_linear_28_227" x1="25.6235" y1="26.5994" x2="28.9534" y2="38.6305" gradientUnits="userSpaceOnUse">
<stop offset="0.0560494" stop-color="#E38A04" stop-opacity="0.9"/>
<stop offset="1" stop-color="#FBC02D"/>
</linearGradient>
<linearGradient id="paint3_linear_28_227" x1="24.1837" y1="16.2178" x2="28.1796" y2="42.1457" gradientUnits="userSpaceOnUse">
<stop offset="0.0560494" stop-color="#E38A04" stop-opacity="0.91"/>
<stop offset="1" stop-color="#FBC02D"/>
</linearGradient>
</defs>
</svg>
