<svg width="28" height="28" viewBox="0 0 28 28" fill="none" xmlns="http://www.w3.org/2000/svg">
<g id="Frame">
<path id="Vector" d="M13.9058 8.37486L12.9281 7.38488C12.0205 6.46596 10.7895 5.94971 9.50601 5.94971C8.2225 5.94971 6.99154 6.46596 6.08396 7.38488C5.17638 8.30381 4.6665 9.55016 4.6665 10.8497C4.6665 12.1493 5.17638 13.3956 6.08396 14.3145L10.9514 19.2428C10.9584 19.25 10.9655 19.2572 10.9726 19.2643L13.4169 21.7392C13.5519 21.8759 13.7288 21.9443 13.9058 21.9443" stroke="#262626" stroke-linecap="round" stroke-linejoin="round"/>
<path id="Vector_2" d="M13.9058 8.37479L14.8834 7.38488C15.791 6.46596 17.022 5.94971 18.3055 5.94971C19.589 5.94971 20.82 6.46596 21.7275 7.38488C22.6351 8.30381 23.145 9.55016 23.145 10.8497C23.145 12.1493 22.6351 13.3956 21.7275 14.3145L14.3946 21.7392C14.2596 21.8758 14.0827 21.9442 13.9058 21.9442" stroke="#262626" stroke-linecap="round" stroke-linejoin="round"/>
</g>
</svg>
