<svg width="28" height="28" viewBox="0 0 28 28" fill="none" xmlns="http://www.w3.org/2000/svg">
<g id="lock_FILL0_wght400_GRAD0_opsz48 1">
<path id="Vector" d="M8.45817 9.68842H8.63817V9.50842V6.70841C8.63817 5.22282 9.15992 3.96175 10.2073 2.915C11.2546 1.86824 12.5164 1.34675 14.0029 1.34675C15.4894 1.34675 16.7502 1.86823 17.7954 2.91488C18.8407 3.96161 19.3615 5.22271 19.3615 6.70841V9.50842V9.68842H19.5415H21.5832C22.0163 9.68842 22.3826 9.84054 22.6918 10.1498C23.001 10.459 23.1532 10.8253 23.1532 11.2584V23.9167C23.1532 24.3499 23.001 24.7162 22.6918 25.0254C22.3826 25.3346 22.0163 25.4867 21.5832 25.4867H6.4165C5.98337 25.4867 5.61707 25.3346 5.30785 25.0254C4.99862 24.7162 4.8465 24.3499 4.8465 23.9167V11.2584C4.8465 10.8253 4.99862 10.459 5.30785 10.1498C5.61707 9.84054 5.98337 9.68842 6.4165 9.68842H8.45817ZM6.2365 23.9167V24.0967H6.4165H21.5832H21.7632V23.9167V11.2584V11.0784H21.5832H6.4165H6.2365V11.2584V23.9167ZM10.0282 9.50842V9.68842H10.2082H17.7915H17.9715V9.50842V6.70841C17.9715 5.60803 17.5847 4.66685 16.8139 3.89544C16.0432 3.12401 15.1028 2.73675 14.0033 2.73675C12.9037 2.73675 11.9623 3.12399 11.1894 3.89524C10.4163 4.66661 10.0282 5.60785 10.0282 6.70841V9.50842ZM15.4635 19.0622C15.06 19.4573 14.5772 19.6534 14.0047 19.6534C13.4322 19.6534 12.9474 19.4575 12.5405 19.0626C12.1333 18.6673 11.934 18.203 11.934 17.6605C11.934 17.1168 12.1328 16.6245 12.5428 16.1781C12.948 15.7369 13.4289 15.5217 13.9949 15.5217C14.561 15.5217 15.0438 15.737 15.4524 16.1786C15.8661 16.6258 16.0657 17.1131 16.0657 17.6459C16.0657 18.1981 15.8671 18.667 15.4635 19.0622Z" fill="black" stroke="white" stroke-width="0.36"/>
</g>
</svg>
