<svg width="28" height="28" viewBox="0 0 28 28" fill="none" xmlns="http://www.w3.org/2000/svg">
<g id="policy_FILL0_wght400_GRAD0_opsz48 1">
<path id="Vector" d="M13.9434 24.0001L13.9995 24.0187L14.0558 24.0003C15.0854 23.6637 16.0313 23.1734 16.893 22.5296C17.7522 21.8877 18.5173 21.1324 19.1881 20.2643L19.285 20.1389L19.1729 20.0269L16.5479 17.4019L16.4502 17.3041L16.3305 17.3734C15.9717 17.5812 15.5939 17.7511 15.1971 17.8834C14.807 18.0135 14.4081 18.0784 13.9998 18.0784C12.8409 18.0784 11.8609 17.6785 11.0493 16.8762C10.2382 16.0744 9.834 15.0999 9.834 13.9417C9.834 12.7632 10.2389 11.7739 11.05 10.9627C11.8618 10.1509 12.8416 9.7467 13.9998 9.7467C15.1581 9.7467 16.1379 10.1509 16.9496 10.9627C17.7608 11.7739 18.1657 12.7632 18.1657 13.9417C18.1657 14.3326 18.1099 14.7244 17.9976 15.1172C17.887 15.5044 17.7123 15.8534 17.4735 16.1657L17.3778 16.2909L17.4892 16.4023L19.9101 18.8231L20.0759 18.989L20.1932 18.7859C20.7071 17.8964 21.0972 16.9382 21.3636 15.9119C21.6301 14.8857 21.7632 13.8302 21.7632 12.7459V7.0292V6.90468L21.6467 6.86077L14.0633 4.00243L13.9998 3.9785L13.9364 4.00243L6.35302 6.86077L6.2365 6.90468V7.0292V12.7459C6.2365 15.3286 6.95189 17.6636 8.38274 19.7457C9.81338 21.8276 11.6677 23.2482 13.9434 24.0001ZM13.9998 25.4519C11.3427 24.7768 9.15648 23.2279 7.43856 20.7941C5.70938 18.3445 4.8465 15.6632 4.8465 12.7459V5.92894L13.9998 2.49644L23.1532 5.92894V12.7459C23.1532 15.6632 22.2903 18.3445 20.5611 20.7941C18.8432 23.2279 16.657 24.7768 13.9998 25.4519ZM13.9998 16.6884C14.7656 16.6884 15.4236 16.4225 15.9634 15.8931C16.5041 15.3628 16.7757 14.7086 16.7757 13.9417C16.7757 13.1569 16.5052 12.4883 15.9646 11.9478C15.4251 11.4082 14.7667 11.1367 13.9998 11.1367C13.233 11.1367 12.5746 11.4082 12.0351 11.9478C11.4945 12.4883 11.224 13.1569 11.224 13.9417C11.224 14.7086 11.4956 15.3628 12.0363 15.8931C12.5761 16.4225 13.2341 16.6884 13.9998 16.6884Z" fill="black" stroke="white" stroke-width="0.36"/>
</g>
</svg>
