<svg width="28" height="28" viewBox="0 0 28 28" fill="none" xmlns="http://www.w3.org/2000/svg">
<g id="published_with_changes_FILL0_wght400_GRAD0_opsz48 1">
<path id="Vector" d="M12.3617 25.4026C11.0598 25.2164 9.84121 24.8142 8.70477 24.196C7.50797 23.5449 6.47503 22.7174 5.60477 21.7133C4.73464 20.7093 4.05009 19.5514 3.55162 18.2381C3.05439 16.9281 2.805 15.5159 2.805 13.9999C2.805 12.3184 3.2012 10.7134 3.9952 9.18282C4.79158 7.64762 5.86165 6.28447 7.20685 5.09301L7.5622 4.77827H7.0875H3.70917V3.38827H10.0283V9.70744H8.63833V6.12493V5.75134L8.34616 5.98416C7.08313 6.99063 6.07556 8.19058 5.32488 9.58328C4.57224 10.9796 4.195 12.4526 4.195 13.9999C4.195 16.6061 4.98599 18.8409 6.57156 20.694C8.12068 22.5046 10.0527 23.6025 12.3617 23.983V25.4026ZM12.4648 16.6355L18.9583 10.142L19.9288 11.1124L12.3375 18.7037L8.07123 14.4374L9.04167 13.467L12.2102 16.6355L12.3375 16.7628L12.4648 16.6355ZM21.4284 7.30583C19.8793 5.4953 17.9473 4.39736 15.6383 4.01688V2.59682C18.3432 2.97499 20.5982 4.1989 22.4103 6.27255C24.2656 8.39561 25.195 10.9679 25.195 13.9999C25.195 15.6815 24.7988 17.2865 24.0048 18.817C23.2084 20.3522 22.1383 21.7154 20.7932 22.9069L20.4378 23.2216H20.9125H24.2908V24.6116H17.9717V18.2924H19.3617V21.8749V22.2531L19.6552 22.0146C20.9172 20.9892 21.9243 19.785 22.6749 18.4025C23.4277 17.0156 23.805 15.5473 23.805 13.9999C23.805 11.3937 23.014 9.15897 21.4284 7.30583Z" fill="black" stroke="white" stroke-width="0.36"/>
</g>
</svg>
