<svg width="28" height="28" viewBox="0 0 28 28" fill="none" xmlns="http://www.w3.org/2000/svg">
<g id="Frame">
<path id="Vector" d="M10.2415 16.6251C9.31524 17.1665 8.17408 17.1665 7.24784 16.6251C6.32159 16.0836 5.75098 15.083 5.75098 14.0001C5.75098 12.9172 6.32159 11.9165 7.24784 11.3751C8.17405 10.8336 9.31524 10.8336 10.2415 11.3751C11.1677 11.9165 11.7383 12.9172 11.7383 14.0001C11.7383 15.083 11.1677 16.0836 10.2415 16.6251Z" stroke="#262626" stroke-linecap="round" stroke-linejoin="round"/>
<path id="Vector_2" d="M11.2642 12.3651L16.5027 9.18262" stroke="#262626" stroke-linecap="round" stroke-linejoin="round"/>
<path id="Vector_3" d="M11.2646 15.6375L16.5032 18.8199" stroke="#262626" stroke-linecap="round" stroke-linejoin="round"/>
<path id="Vector_4" d="M20.6116 10.325C19.6854 10.8665 18.5442 10.8665 17.618 10.325C16.6917 9.78358 16.1211 8.78293 16.1211 7.70003C16.1211 6.61713 16.6917 5.61648 17.618 5.07503C18.5442 4.53358 19.6854 4.53358 20.6116 5.07503C21.5378 5.61648 22.1084 6.61713 22.1084 7.70003C22.1084 8.78293 21.5378 9.78358 20.6116 10.325Z" stroke="#262626" stroke-linecap="round" stroke-linejoin="round"/>
<path id="Vector_5" d="M20.6116 22.9251C19.6854 23.4666 18.5442 23.4666 17.618 22.9251C16.6917 22.3837 16.1211 21.383 16.1211 20.3001C16.1211 19.2172 16.6917 18.2166 17.618 17.6751C18.5442 17.1337 19.6854 17.1337 20.6116 17.6751C21.5378 18.2166 22.1084 19.2172 22.1084 20.3001C22.1084 21.383 21.5378 22.3837 20.6116 22.9251Z" stroke="#262626" stroke-linecap="round" stroke-linejoin="round"/>
</g>
</svg>
