<svg width="48" height="48" viewBox="0 0 48 48" fill="none" xmlns="http://www.w3.org/2000/svg">
<g id="Frame">
<path id="Vector" d="M15.3172 4.69361C21.0751 1.86417 27.7823 1.86417 33.5402 4.69361C39.298 7.52305 43.4799 12.8741 44.902 19.2318C46.3241 25.5896 44.8316 32.2621 40.847 37.3606C36.8624 42.4591 30.8195 45.4287 24.4287 45.4287C18.0379 45.4287 11.995 42.4591 8.01041 37.3606C4.02582 32.2621 2.53335 25.5896 3.95539 19.2318C5.37751 12.8741 9.55931 7.52305 15.3172 4.69361Z" stroke="#007BFF" stroke-width="4" stroke-linecap="round" stroke-linejoin="round"/>
<path id="Vector_2" d="M17.9999 18.8571C17.9999 19.8039 17.2323 20.5714 16.2856 20.5714C15.3388 20.5714 14.5713 19.8039 14.5713 18.8571C14.5713 17.9103 15.3388 17.1428 16.2856 17.1428C17.2323 17.1428 17.9999 17.9103 17.9999 18.8571Z" stroke="#007BFF" stroke-width="4" stroke-linecap="round" stroke-linejoin="round"/>
<path id="Vector_3" d="M33.4286 18.8571C33.4286 19.8039 32.661 20.5714 31.7143 20.5714C30.7675 20.5714 30 19.8039 30 18.8571C30 17.9103 30.7675 17.1428 31.7143 17.1428C32.661 17.1428 33.4286 17.9103 33.4286 18.8571Z" stroke="#007BFF" stroke-width="4" stroke-linecap="round" stroke-linejoin="round"/>
<path id="Vector_4" d="M22.2694 36.5039C23.009 35.5956 23.956 34.7773 25.0561 34.0959C26.1562 33.4145 27.388 32.8832 28.6812 32.5324C29.9743 32.1815 31.3034 32.0181 32.5926 32.0513C33.8819 32.0844 35.106 32.3137 36.1952 32.7258" stroke="#007BFF" stroke-width="4" stroke-linecap="round" stroke-linejoin="round"/>
</g>
</svg>
