<svg width="28" height="28" viewBox="0 0 28 28" fill="none" xmlns="http://www.w3.org/2000/svg">
<g id="user">
<path id="Rectangle" d="M20.9996 24.5H6.99961C6.22641 24.5 5.59961 23.8732 5.59961 23.1V22.6322C5.59961 20.5978 6.86176 18.7769 8.76676 18.0629C12.1407 16.7984 15.8585 16.7984 19.2325 18.0629C21.1375 18.7769 22.3996 20.5978 22.3996 22.6322V23.1C22.3996 23.8732 21.7728 24.5 20.9996 24.5Z" stroke="#262626" stroke-width="1.4" stroke-linecap="round" stroke-linejoin="round"/>
<path id="Polygon 586" d="M11.865 13.6037C13.2048 14.2919 14.7942 14.2919 16.134 13.6037C17.3808 12.9632 18.2742 11.7966 18.5675 10.4258L18.6458 10.06C18.9457 8.65825 18.6254 7.19528 17.767 6.04719L17.6413 5.87907C16.7829 4.73082 15.4331 4.05469 13.9995 4.05469C12.5658 4.05469 11.2161 4.73083 10.3576 5.87907L10.2319 6.04719C9.37357 7.19528 9.05319 8.65825 9.35313 10.06L9.43141 10.4258C9.72472 11.7966 10.6181 12.9632 11.865 13.6037Z" stroke="#262626" stroke-width="1.4" stroke-linecap="round" stroke-linejoin="round"/>
</g>
</svg>
